%TF.GenerationSoftware,KiCad,Pcbnew,9.0.4*%
%TF.CreationDate,2025-08-31T14:54:27-04:00*%
%TF.ProjectId,wordclock,776f7264-636c-46f6-936b-2e6b69636164,rev?*%
%TF.SameCoordinates,Original*%
%TF.FileFunction,Soldermask,Bot*%
%TF.FilePolarity,Negative*%
%FSLAX46Y46*%
G04 Gerber Fmt 4.6, Leading zero omitted, Abs format (unit mm)*
G04 Created by KiCad (PCBNEW 9.0.4) date 2025-08-31 14:54:27*
%MOMM*%
%LPD*%
G01*
G04 APERTURE LIST*
G04 Aperture macros list*
%AMRoundRect*
0 Rectangle with rounded corners*
0 $1 Rounding radius*
0 $2 $3 $4 $5 $6 $7 $8 $9 X,Y pos of 4 corners*
0 Add a 4 corners polygon primitive as box body*
4,1,4,$2,$3,$4,$5,$6,$7,$8,$9,$2,$3,0*
0 Add four circle primitives for the rounded corners*
1,1,$1+$1,$2,$3*
1,1,$1+$1,$4,$5*
1,1,$1+$1,$6,$7*
1,1,$1+$1,$8,$9*
0 Add four rect primitives between the rounded corners*
20,1,$1+$1,$2,$3,$4,$5,0*
20,1,$1+$1,$4,$5,$6,$7,0*
20,1,$1+$1,$6,$7,$8,$9,0*
20,1,$1+$1,$8,$9,$2,$3,0*%
G04 Aperture macros list end*
%ADD10R,1.700000X1.700000*%
%ADD11C,1.700000*%
%ADD12C,4.000000*%
%ADD13C,2.200000*%
%ADD14C,1.400000*%
%ADD15RoundRect,0.152400X0.609600X-1.063600X0.609600X1.063600X-0.609600X1.063600X-0.609600X-1.063600X0*%
%ADD16C,1.524000*%
%ADD17RoundRect,0.152400X-0.609600X1.063600X-0.609600X-1.063600X0.609600X-1.063600X0.609600X1.063600X0*%
G04 APERTURE END LIST*
D10*
%TO.C,J4*%
X170500000Y-73960000D03*
D11*
X170500000Y-76500000D03*
X170500000Y-79040000D03*
X170500000Y-81580000D03*
X170500000Y-84120000D03*
%TD*%
D10*
%TO.C,J5*%
X142500000Y-116160000D03*
D11*
X142500000Y-113620000D03*
X142500000Y-111080000D03*
X142500000Y-108540000D03*
X142500000Y-106000000D03*
%TD*%
D10*
%TO.C,J6*%
X142500000Y-73960000D03*
D11*
X142500000Y-76500000D03*
X142500000Y-79040000D03*
X142500000Y-81580000D03*
X142500000Y-84120000D03*
%TD*%
%TO.C,SW3*%
X176840000Y-136580000D03*
D12*
X181920000Y-136580000D03*
D11*
X187000000Y-136580000D03*
D13*
X184460000Y-131500000D03*
X178110000Y-134040000D03*
%TD*%
D10*
%TO.C,J1*%
X110500000Y-73960000D03*
D11*
X110500000Y-76500000D03*
X110500000Y-79040000D03*
X110500000Y-81580000D03*
X110500000Y-84120000D03*
%TD*%
D10*
%TO.C,J8*%
X138500000Y-116160000D03*
D11*
X138500000Y-113620000D03*
X138500000Y-111080000D03*
X138500000Y-108540000D03*
X138500000Y-106000000D03*
%TD*%
%TO.C,SW4*%
X93840000Y-136580000D03*
D12*
X98920000Y-136580000D03*
D11*
X104000000Y-136580000D03*
D13*
X101460000Y-131500000D03*
X95110000Y-134040000D03*
%TD*%
D14*
%TO.C,R1*%
X118100000Y-145080000D03*
X120000000Y-145080000D03*
%TD*%
D10*
%TO.C,J3*%
X138500000Y-73960000D03*
D11*
X138500000Y-76500000D03*
X138500000Y-79040000D03*
X138500000Y-81580000D03*
X138500000Y-84120000D03*
%TD*%
D10*
%TO.C,J7*%
X170500000Y-116160000D03*
D11*
X170500000Y-113620000D03*
X170500000Y-111080000D03*
X170500000Y-108540000D03*
X170500000Y-106000000D03*
%TD*%
%TO.C,SW2*%
X177000000Y-53580000D03*
D12*
X182080000Y-53580000D03*
D11*
X187160000Y-53580000D03*
D13*
X184620000Y-48500000D03*
X178270000Y-51040000D03*
%TD*%
D11*
%TO.C,SW1*%
X93840000Y-53580000D03*
D12*
X98920000Y-53580000D03*
D11*
X104000000Y-53580000D03*
D13*
X101460000Y-48500000D03*
X95110000Y-51040000D03*
%TD*%
D10*
%TO.C,J2*%
X92420000Y-124080000D03*
D11*
X94960000Y-124080000D03*
X97500000Y-124080000D03*
X100040000Y-124080000D03*
X102580000Y-124080000D03*
X105120000Y-124080000D03*
%TD*%
D15*
%TO.C,U1*%
X93500000Y-87005000D03*
D16*
X93500000Y-87840000D03*
D15*
X96040000Y-87005000D03*
D16*
X96040000Y-87840000D03*
D15*
X98580000Y-87005000D03*
D16*
X98580000Y-87840000D03*
D15*
X101120000Y-87005000D03*
D16*
X101120000Y-87840000D03*
D15*
X103660000Y-87005000D03*
D16*
X103660000Y-87840000D03*
D15*
X106200000Y-87005000D03*
D16*
X106200000Y-87840000D03*
D15*
X108740000Y-87005000D03*
D16*
X108740000Y-87840000D03*
X108740000Y-103080000D03*
D17*
X108740000Y-103915000D03*
D16*
X106200000Y-103080000D03*
D17*
X106200000Y-103915000D03*
D16*
X103660000Y-103080000D03*
D17*
X103660000Y-103915000D03*
D16*
X101120000Y-103080000D03*
D17*
X101120000Y-103915000D03*
D16*
X98580000Y-103080000D03*
D17*
X98580000Y-103915000D03*
D16*
X96040000Y-103080000D03*
D17*
X96040000Y-103915000D03*
D16*
X93500000Y-103080000D03*
D17*
X93500000Y-103915000D03*
%TD*%
M02*
