%TF.GenerationSoftware,KiCad,Pcbnew,9.0.4*%
%TF.CreationDate,2025-08-31T14:54:27-04:00*%
%TF.ProjectId,wordclock,776f7264-636c-46f6-936b-2e6b69636164,rev?*%
%TF.SameCoordinates,Original*%
%TF.FileFunction,Legend,Bot*%
%TF.FilePolarity,Positive*%
%FSLAX46Y46*%
G04 Gerber Fmt 4.6, Leading zero omitted, Abs format (unit mm)*
G04 Created by KiCad (PCBNEW 9.0.4) date 2025-08-31 14:54:27*
%MOMM*%
%LPD*%
G01*
G04 APERTURE LIST*
%ADD10C,0.150000*%
%ADD11C,0.101600*%
%ADD12C,0.120000*%
%ADD13C,0.127000*%
%ADD14C,0.100000*%
%ADD15C,0.504000*%
G04 APERTURE END LIST*
D10*
X89494819Y-123746666D02*
X90209104Y-123746666D01*
X90209104Y-123746666D02*
X90351961Y-123699047D01*
X90351961Y-123699047D02*
X90447200Y-123603809D01*
X90447200Y-123603809D02*
X90494819Y-123460952D01*
X90494819Y-123460952D02*
X90494819Y-123365714D01*
X89590057Y-124175238D02*
X89542438Y-124222857D01*
X89542438Y-124222857D02*
X89494819Y-124318095D01*
X89494819Y-124318095D02*
X89494819Y-124556190D01*
X89494819Y-124556190D02*
X89542438Y-124651428D01*
X89542438Y-124651428D02*
X89590057Y-124699047D01*
X89590057Y-124699047D02*
X89685295Y-124746666D01*
X89685295Y-124746666D02*
X89780533Y-124746666D01*
X89780533Y-124746666D02*
X89923390Y-124699047D01*
X89923390Y-124699047D02*
X90494819Y-124127619D01*
X90494819Y-124127619D02*
X90494819Y-124746666D01*
D11*
X89653479Y-86476190D02*
X90167526Y-86476190D01*
X90167526Y-86476190D02*
X90228002Y-86506428D01*
X90228002Y-86506428D02*
X90258241Y-86536666D01*
X90258241Y-86536666D02*
X90288479Y-86597142D01*
X90288479Y-86597142D02*
X90288479Y-86718095D01*
X90288479Y-86718095D02*
X90258241Y-86778571D01*
X90258241Y-86778571D02*
X90228002Y-86808809D01*
X90228002Y-86808809D02*
X90167526Y-86839047D01*
X90167526Y-86839047D02*
X89653479Y-86839047D01*
X90288479Y-87474047D02*
X90288479Y-87111190D01*
X90288479Y-87292618D02*
X89653479Y-87292618D01*
X89653479Y-87292618D02*
X89744193Y-87232142D01*
X89744193Y-87232142D02*
X89804669Y-87171666D01*
X89804669Y-87171666D02*
X89834907Y-87111190D01*
D12*
%TO.C,J2*%
X91040000Y-122700000D02*
X91040000Y-124080000D01*
X92420000Y-122700000D02*
X91040000Y-122700000D01*
X93690000Y-122700000D02*
X93690000Y-125460000D01*
X93690000Y-122700000D02*
X106500000Y-122700000D01*
X93690000Y-125460000D02*
X106500000Y-125460000D01*
X106500000Y-122700000D02*
X106500000Y-125460000D01*
D13*
%TO.C,U1*%
X89169000Y-91468728D02*
X89169000Y-99464000D01*
X89669000Y-99964000D02*
X90579000Y-99964000D01*
X90579000Y-90965000D02*
X89668728Y-90968728D01*
D14*
X90579000Y-102445000D02*
X90579000Y-88475000D01*
D13*
X90579000Y-102445000D02*
X90579000Y-88475000D01*
X109629000Y-86570000D02*
X92484000Y-86570000D01*
X109629000Y-104350000D02*
X92484000Y-104350000D01*
X111534000Y-88475000D02*
X111534000Y-102445000D01*
X89169000Y-91468728D02*
G75*
G02*
X89668728Y-90968727I500019J-18D01*
G01*
X89669000Y-99964000D02*
G75*
G02*
X89169000Y-99464000I0J500000D01*
G01*
X90579000Y-88475000D02*
G75*
G02*
X92484000Y-86570000I1905001J-1D01*
G01*
X92484000Y-104350000D02*
G75*
G02*
X90579000Y-102445000I0J1905000D01*
G01*
X109629000Y-86570000D02*
G75*
G02*
X111534000Y-88475000I-1J-1905001D01*
G01*
X111534000Y-102445000D02*
G75*
G02*
X109629000Y-104350000I-1905000J0D01*
G01*
D15*
X91072000Y-86510000D02*
G75*
G02*
X90568000Y-86510000I-252000J0D01*
G01*
X90568000Y-86510000D02*
G75*
G02*
X91072000Y-86510000I252000J0D01*
G01*
X91952000Y-87653000D02*
G75*
G02*
X91448000Y-87653000I-252000J0D01*
G01*
X91448000Y-87653000D02*
G75*
G02*
X91952000Y-87653000I252000J0D01*
G01*
%TD*%
M02*
