%TF.GenerationSoftware,KiCad,Pcbnew,9.0.4*%
%TF.CreationDate,2025-08-31T14:54:27-04:00*%
%TF.ProjectId,wordclock,776f7264-636c-46f6-936b-2e6b69636164,rev?*%
%TF.SameCoordinates,Original*%
%TF.FileFunction,Legend,Top*%
%TF.FilePolarity,Positive*%
%FSLAX46Y46*%
G04 Gerber Fmt 4.6, Leading zero omitted, Abs format (unit mm)*
G04 Created by KiCad (PCBNEW 9.0.4) date 2025-08-31 14:54:27*
%MOMM*%
%LPD*%
G01*
G04 APERTURE LIST*
%ADD10C,0.100000*%
%ADD11C,0.150000*%
%ADD12C,0.120000*%
G04 APERTURE END LIST*
D10*
X140500000Y-95080000D02*
X172500000Y-95080000D01*
X172500000Y-127080000D01*
X140500000Y-127080000D01*
X140500000Y-95080000D01*
X140500000Y-63040000D02*
X172500000Y-63040000D01*
X172500000Y-95040000D01*
X140500000Y-95040000D01*
X140500000Y-63040000D01*
X108500000Y-95080000D02*
X140500000Y-95080000D01*
X140500000Y-127080000D01*
X108500000Y-127080000D01*
X108500000Y-95080000D01*
X108500000Y-63040000D02*
X140500000Y-63040000D01*
X140500000Y-95040000D01*
X108500000Y-95040000D01*
X108500000Y-63040000D01*
D11*
X170166666Y-71034819D02*
X170166666Y-71749104D01*
X170166666Y-71749104D02*
X170119047Y-71891961D01*
X170119047Y-71891961D02*
X170023809Y-71987200D01*
X170023809Y-71987200D02*
X169880952Y-72034819D01*
X169880952Y-72034819D02*
X169785714Y-72034819D01*
X171071428Y-71368152D02*
X171071428Y-72034819D01*
X170833333Y-70987200D02*
X170595238Y-71701485D01*
X170595238Y-71701485D02*
X171214285Y-71701485D01*
X142166666Y-117994819D02*
X142166666Y-118709104D01*
X142166666Y-118709104D02*
X142119047Y-118851961D01*
X142119047Y-118851961D02*
X142023809Y-118947200D01*
X142023809Y-118947200D02*
X141880952Y-118994819D01*
X141880952Y-118994819D02*
X141785714Y-118994819D01*
X143119047Y-117994819D02*
X142642857Y-117994819D01*
X142642857Y-117994819D02*
X142595238Y-118471009D01*
X142595238Y-118471009D02*
X142642857Y-118423390D01*
X142642857Y-118423390D02*
X142738095Y-118375771D01*
X142738095Y-118375771D02*
X142976190Y-118375771D01*
X142976190Y-118375771D02*
X143071428Y-118423390D01*
X143071428Y-118423390D02*
X143119047Y-118471009D01*
X143119047Y-118471009D02*
X143166666Y-118566247D01*
X143166666Y-118566247D02*
X143166666Y-118804342D01*
X143166666Y-118804342D02*
X143119047Y-118899580D01*
X143119047Y-118899580D02*
X143071428Y-118947200D01*
X143071428Y-118947200D02*
X142976190Y-118994819D01*
X142976190Y-118994819D02*
X142738095Y-118994819D01*
X142738095Y-118994819D02*
X142642857Y-118947200D01*
X142642857Y-118947200D02*
X142595238Y-118899580D01*
X142166666Y-71034819D02*
X142166666Y-71749104D01*
X142166666Y-71749104D02*
X142119047Y-71891961D01*
X142119047Y-71891961D02*
X142023809Y-71987200D01*
X142023809Y-71987200D02*
X141880952Y-72034819D01*
X141880952Y-72034819D02*
X141785714Y-72034819D01*
X143071428Y-71034819D02*
X142880952Y-71034819D01*
X142880952Y-71034819D02*
X142785714Y-71082438D01*
X142785714Y-71082438D02*
X142738095Y-71130057D01*
X142738095Y-71130057D02*
X142642857Y-71272914D01*
X142642857Y-71272914D02*
X142595238Y-71463390D01*
X142595238Y-71463390D02*
X142595238Y-71844342D01*
X142595238Y-71844342D02*
X142642857Y-71939580D01*
X142642857Y-71939580D02*
X142690476Y-71987200D01*
X142690476Y-71987200D02*
X142785714Y-72034819D01*
X142785714Y-72034819D02*
X142976190Y-72034819D01*
X142976190Y-72034819D02*
X143071428Y-71987200D01*
X143071428Y-71987200D02*
X143119047Y-71939580D01*
X143119047Y-71939580D02*
X143166666Y-71844342D01*
X143166666Y-71844342D02*
X143166666Y-71606247D01*
X143166666Y-71606247D02*
X143119047Y-71511009D01*
X143119047Y-71511009D02*
X143071428Y-71463390D01*
X143071428Y-71463390D02*
X142976190Y-71415771D01*
X142976190Y-71415771D02*
X142785714Y-71415771D01*
X142785714Y-71415771D02*
X142690476Y-71463390D01*
X142690476Y-71463390D02*
X142642857Y-71511009D01*
X142642857Y-71511009D02*
X142595238Y-71606247D01*
X180586667Y-129113200D02*
X180729524Y-129160819D01*
X180729524Y-129160819D02*
X180967619Y-129160819D01*
X180967619Y-129160819D02*
X181062857Y-129113200D01*
X181062857Y-129113200D02*
X181110476Y-129065580D01*
X181110476Y-129065580D02*
X181158095Y-128970342D01*
X181158095Y-128970342D02*
X181158095Y-128875104D01*
X181158095Y-128875104D02*
X181110476Y-128779866D01*
X181110476Y-128779866D02*
X181062857Y-128732247D01*
X181062857Y-128732247D02*
X180967619Y-128684628D01*
X180967619Y-128684628D02*
X180777143Y-128637009D01*
X180777143Y-128637009D02*
X180681905Y-128589390D01*
X180681905Y-128589390D02*
X180634286Y-128541771D01*
X180634286Y-128541771D02*
X180586667Y-128446533D01*
X180586667Y-128446533D02*
X180586667Y-128351295D01*
X180586667Y-128351295D02*
X180634286Y-128256057D01*
X180634286Y-128256057D02*
X180681905Y-128208438D01*
X180681905Y-128208438D02*
X180777143Y-128160819D01*
X180777143Y-128160819D02*
X181015238Y-128160819D01*
X181015238Y-128160819D02*
X181158095Y-128208438D01*
X181491429Y-128160819D02*
X181729524Y-129160819D01*
X181729524Y-129160819D02*
X181920000Y-128446533D01*
X181920000Y-128446533D02*
X182110476Y-129160819D01*
X182110476Y-129160819D02*
X182348572Y-128160819D01*
X182634286Y-128160819D02*
X183253333Y-128160819D01*
X183253333Y-128160819D02*
X182920000Y-128541771D01*
X182920000Y-128541771D02*
X183062857Y-128541771D01*
X183062857Y-128541771D02*
X183158095Y-128589390D01*
X183158095Y-128589390D02*
X183205714Y-128637009D01*
X183205714Y-128637009D02*
X183253333Y-128732247D01*
X183253333Y-128732247D02*
X183253333Y-128970342D01*
X183253333Y-128970342D02*
X183205714Y-129065580D01*
X183205714Y-129065580D02*
X183158095Y-129113200D01*
X183158095Y-129113200D02*
X183062857Y-129160819D01*
X183062857Y-129160819D02*
X182777143Y-129160819D01*
X182777143Y-129160819D02*
X182681905Y-129113200D01*
X182681905Y-129113200D02*
X182634286Y-129065580D01*
X110166666Y-71034819D02*
X110166666Y-71749104D01*
X110166666Y-71749104D02*
X110119047Y-71891961D01*
X110119047Y-71891961D02*
X110023809Y-71987200D01*
X110023809Y-71987200D02*
X109880952Y-72034819D01*
X109880952Y-72034819D02*
X109785714Y-72034819D01*
X111166666Y-72034819D02*
X110595238Y-72034819D01*
X110880952Y-72034819D02*
X110880952Y-71034819D01*
X110880952Y-71034819D02*
X110785714Y-71177676D01*
X110785714Y-71177676D02*
X110690476Y-71272914D01*
X110690476Y-71272914D02*
X110595238Y-71320533D01*
X138166666Y-117994819D02*
X138166666Y-118709104D01*
X138166666Y-118709104D02*
X138119047Y-118851961D01*
X138119047Y-118851961D02*
X138023809Y-118947200D01*
X138023809Y-118947200D02*
X137880952Y-118994819D01*
X137880952Y-118994819D02*
X137785714Y-118994819D01*
X138785714Y-118423390D02*
X138690476Y-118375771D01*
X138690476Y-118375771D02*
X138642857Y-118328152D01*
X138642857Y-118328152D02*
X138595238Y-118232914D01*
X138595238Y-118232914D02*
X138595238Y-118185295D01*
X138595238Y-118185295D02*
X138642857Y-118090057D01*
X138642857Y-118090057D02*
X138690476Y-118042438D01*
X138690476Y-118042438D02*
X138785714Y-117994819D01*
X138785714Y-117994819D02*
X138976190Y-117994819D01*
X138976190Y-117994819D02*
X139071428Y-118042438D01*
X139071428Y-118042438D02*
X139119047Y-118090057D01*
X139119047Y-118090057D02*
X139166666Y-118185295D01*
X139166666Y-118185295D02*
X139166666Y-118232914D01*
X139166666Y-118232914D02*
X139119047Y-118328152D01*
X139119047Y-118328152D02*
X139071428Y-118375771D01*
X139071428Y-118375771D02*
X138976190Y-118423390D01*
X138976190Y-118423390D02*
X138785714Y-118423390D01*
X138785714Y-118423390D02*
X138690476Y-118471009D01*
X138690476Y-118471009D02*
X138642857Y-118518628D01*
X138642857Y-118518628D02*
X138595238Y-118613866D01*
X138595238Y-118613866D02*
X138595238Y-118804342D01*
X138595238Y-118804342D02*
X138642857Y-118899580D01*
X138642857Y-118899580D02*
X138690476Y-118947200D01*
X138690476Y-118947200D02*
X138785714Y-118994819D01*
X138785714Y-118994819D02*
X138976190Y-118994819D01*
X138976190Y-118994819D02*
X139071428Y-118947200D01*
X139071428Y-118947200D02*
X139119047Y-118899580D01*
X139119047Y-118899580D02*
X139166666Y-118804342D01*
X139166666Y-118804342D02*
X139166666Y-118613866D01*
X139166666Y-118613866D02*
X139119047Y-118518628D01*
X139119047Y-118518628D02*
X139071428Y-118471009D01*
X139071428Y-118471009D02*
X138976190Y-118423390D01*
X97586667Y-129113200D02*
X97729524Y-129160819D01*
X97729524Y-129160819D02*
X97967619Y-129160819D01*
X97967619Y-129160819D02*
X98062857Y-129113200D01*
X98062857Y-129113200D02*
X98110476Y-129065580D01*
X98110476Y-129065580D02*
X98158095Y-128970342D01*
X98158095Y-128970342D02*
X98158095Y-128875104D01*
X98158095Y-128875104D02*
X98110476Y-128779866D01*
X98110476Y-128779866D02*
X98062857Y-128732247D01*
X98062857Y-128732247D02*
X97967619Y-128684628D01*
X97967619Y-128684628D02*
X97777143Y-128637009D01*
X97777143Y-128637009D02*
X97681905Y-128589390D01*
X97681905Y-128589390D02*
X97634286Y-128541771D01*
X97634286Y-128541771D02*
X97586667Y-128446533D01*
X97586667Y-128446533D02*
X97586667Y-128351295D01*
X97586667Y-128351295D02*
X97634286Y-128256057D01*
X97634286Y-128256057D02*
X97681905Y-128208438D01*
X97681905Y-128208438D02*
X97777143Y-128160819D01*
X97777143Y-128160819D02*
X98015238Y-128160819D01*
X98015238Y-128160819D02*
X98158095Y-128208438D01*
X98491429Y-128160819D02*
X98729524Y-129160819D01*
X98729524Y-129160819D02*
X98920000Y-128446533D01*
X98920000Y-128446533D02*
X99110476Y-129160819D01*
X99110476Y-129160819D02*
X99348572Y-128160819D01*
X100158095Y-128494152D02*
X100158095Y-129160819D01*
X99920000Y-128113200D02*
X99681905Y-128827485D01*
X99681905Y-128827485D02*
X100300952Y-128827485D01*
X118883333Y-143614819D02*
X118550000Y-143138628D01*
X118311905Y-143614819D02*
X118311905Y-142614819D01*
X118311905Y-142614819D02*
X118692857Y-142614819D01*
X118692857Y-142614819D02*
X118788095Y-142662438D01*
X118788095Y-142662438D02*
X118835714Y-142710057D01*
X118835714Y-142710057D02*
X118883333Y-142805295D01*
X118883333Y-142805295D02*
X118883333Y-142948152D01*
X118883333Y-142948152D02*
X118835714Y-143043390D01*
X118835714Y-143043390D02*
X118788095Y-143091009D01*
X118788095Y-143091009D02*
X118692857Y-143138628D01*
X118692857Y-143138628D02*
X118311905Y-143138628D01*
X119835714Y-143614819D02*
X119264286Y-143614819D01*
X119550000Y-143614819D02*
X119550000Y-142614819D01*
X119550000Y-142614819D02*
X119454762Y-142757676D01*
X119454762Y-142757676D02*
X119359524Y-142852914D01*
X119359524Y-142852914D02*
X119264286Y-142900533D01*
X138166666Y-71034819D02*
X138166666Y-71749104D01*
X138166666Y-71749104D02*
X138119047Y-71891961D01*
X138119047Y-71891961D02*
X138023809Y-71987200D01*
X138023809Y-71987200D02*
X137880952Y-72034819D01*
X137880952Y-72034819D02*
X137785714Y-72034819D01*
X138547619Y-71034819D02*
X139166666Y-71034819D01*
X139166666Y-71034819D02*
X138833333Y-71415771D01*
X138833333Y-71415771D02*
X138976190Y-71415771D01*
X138976190Y-71415771D02*
X139071428Y-71463390D01*
X139071428Y-71463390D02*
X139119047Y-71511009D01*
X139119047Y-71511009D02*
X139166666Y-71606247D01*
X139166666Y-71606247D02*
X139166666Y-71844342D01*
X139166666Y-71844342D02*
X139119047Y-71939580D01*
X139119047Y-71939580D02*
X139071428Y-71987200D01*
X139071428Y-71987200D02*
X138976190Y-72034819D01*
X138976190Y-72034819D02*
X138690476Y-72034819D01*
X138690476Y-72034819D02*
X138595238Y-71987200D01*
X138595238Y-71987200D02*
X138547619Y-71939580D01*
X170166666Y-117994819D02*
X170166666Y-118709104D01*
X170166666Y-118709104D02*
X170119047Y-118851961D01*
X170119047Y-118851961D02*
X170023809Y-118947200D01*
X170023809Y-118947200D02*
X169880952Y-118994819D01*
X169880952Y-118994819D02*
X169785714Y-118994819D01*
X170547619Y-117994819D02*
X171214285Y-117994819D01*
X171214285Y-117994819D02*
X170785714Y-118994819D01*
X180746667Y-46113200D02*
X180889524Y-46160819D01*
X180889524Y-46160819D02*
X181127619Y-46160819D01*
X181127619Y-46160819D02*
X181222857Y-46113200D01*
X181222857Y-46113200D02*
X181270476Y-46065580D01*
X181270476Y-46065580D02*
X181318095Y-45970342D01*
X181318095Y-45970342D02*
X181318095Y-45875104D01*
X181318095Y-45875104D02*
X181270476Y-45779866D01*
X181270476Y-45779866D02*
X181222857Y-45732247D01*
X181222857Y-45732247D02*
X181127619Y-45684628D01*
X181127619Y-45684628D02*
X180937143Y-45637009D01*
X180937143Y-45637009D02*
X180841905Y-45589390D01*
X180841905Y-45589390D02*
X180794286Y-45541771D01*
X180794286Y-45541771D02*
X180746667Y-45446533D01*
X180746667Y-45446533D02*
X180746667Y-45351295D01*
X180746667Y-45351295D02*
X180794286Y-45256057D01*
X180794286Y-45256057D02*
X180841905Y-45208438D01*
X180841905Y-45208438D02*
X180937143Y-45160819D01*
X180937143Y-45160819D02*
X181175238Y-45160819D01*
X181175238Y-45160819D02*
X181318095Y-45208438D01*
X181651429Y-45160819D02*
X181889524Y-46160819D01*
X181889524Y-46160819D02*
X182080000Y-45446533D01*
X182080000Y-45446533D02*
X182270476Y-46160819D01*
X182270476Y-46160819D02*
X182508572Y-45160819D01*
X182841905Y-45256057D02*
X182889524Y-45208438D01*
X182889524Y-45208438D02*
X182984762Y-45160819D01*
X182984762Y-45160819D02*
X183222857Y-45160819D01*
X183222857Y-45160819D02*
X183318095Y-45208438D01*
X183318095Y-45208438D02*
X183365714Y-45256057D01*
X183365714Y-45256057D02*
X183413333Y-45351295D01*
X183413333Y-45351295D02*
X183413333Y-45446533D01*
X183413333Y-45446533D02*
X183365714Y-45589390D01*
X183365714Y-45589390D02*
X182794286Y-46160819D01*
X182794286Y-46160819D02*
X183413333Y-46160819D01*
X97586667Y-46113200D02*
X97729524Y-46160819D01*
X97729524Y-46160819D02*
X97967619Y-46160819D01*
X97967619Y-46160819D02*
X98062857Y-46113200D01*
X98062857Y-46113200D02*
X98110476Y-46065580D01*
X98110476Y-46065580D02*
X98158095Y-45970342D01*
X98158095Y-45970342D02*
X98158095Y-45875104D01*
X98158095Y-45875104D02*
X98110476Y-45779866D01*
X98110476Y-45779866D02*
X98062857Y-45732247D01*
X98062857Y-45732247D02*
X97967619Y-45684628D01*
X97967619Y-45684628D02*
X97777143Y-45637009D01*
X97777143Y-45637009D02*
X97681905Y-45589390D01*
X97681905Y-45589390D02*
X97634286Y-45541771D01*
X97634286Y-45541771D02*
X97586667Y-45446533D01*
X97586667Y-45446533D02*
X97586667Y-45351295D01*
X97586667Y-45351295D02*
X97634286Y-45256057D01*
X97634286Y-45256057D02*
X97681905Y-45208438D01*
X97681905Y-45208438D02*
X97777143Y-45160819D01*
X97777143Y-45160819D02*
X98015238Y-45160819D01*
X98015238Y-45160819D02*
X98158095Y-45208438D01*
X98491429Y-45160819D02*
X98729524Y-46160819D01*
X98729524Y-46160819D02*
X98920000Y-45446533D01*
X98920000Y-45446533D02*
X99110476Y-46160819D01*
X99110476Y-46160819D02*
X99348572Y-45160819D01*
X100253333Y-46160819D02*
X99681905Y-46160819D01*
X99967619Y-46160819D02*
X99967619Y-45160819D01*
X99967619Y-45160819D02*
X99872381Y-45303676D01*
X99872381Y-45303676D02*
X99777143Y-45398914D01*
X99777143Y-45398914D02*
X99681905Y-45446533D01*
D12*
%TO.C,J4*%
X169120000Y-72580000D02*
X170500000Y-72580000D01*
X169120000Y-73960000D02*
X169120000Y-72580000D01*
X169120000Y-75230000D02*
X169120000Y-85500000D01*
X169120000Y-75230000D02*
X171880000Y-75230000D01*
X169120000Y-85500000D02*
X171880000Y-85500000D01*
X171880000Y-75230000D02*
X171880000Y-85500000D01*
%TO.C,J5*%
X141120000Y-114890000D02*
X141120000Y-104620000D01*
X143880000Y-104620000D02*
X141120000Y-104620000D01*
X143880000Y-114890000D02*
X141120000Y-114890000D01*
X143880000Y-114890000D02*
X143880000Y-104620000D01*
X143880000Y-116160000D02*
X143880000Y-117540000D01*
X143880000Y-117540000D02*
X142500000Y-117540000D01*
%TO.C,J6*%
X141120000Y-72580000D02*
X142500000Y-72580000D01*
X141120000Y-73960000D02*
X141120000Y-72580000D01*
X141120000Y-75230000D02*
X141120000Y-85500000D01*
X141120000Y-75230000D02*
X143880000Y-75230000D01*
X141120000Y-85500000D02*
X143880000Y-85500000D01*
X143880000Y-75230000D02*
X143880000Y-85500000D01*
%TO.C,SW3*%
X174935000Y-129595000D02*
X188905000Y-129595000D01*
X174935000Y-143565000D02*
X174935000Y-129595000D01*
X188905000Y-129595000D02*
X188905000Y-143565000D01*
X188905000Y-143565000D02*
X174935000Y-143565000D01*
%TO.C,J1*%
X109120000Y-72580000D02*
X110500000Y-72580000D01*
X109120000Y-73960000D02*
X109120000Y-72580000D01*
X109120000Y-75230000D02*
X109120000Y-85500000D01*
X109120000Y-75230000D02*
X111880000Y-75230000D01*
X109120000Y-85500000D02*
X111880000Y-85500000D01*
X111880000Y-75230000D02*
X111880000Y-85500000D01*
%TO.C,J8*%
X137120000Y-114890000D02*
X137120000Y-104620000D01*
X139880000Y-104620000D02*
X137120000Y-104620000D01*
X139880000Y-114890000D02*
X137120000Y-114890000D01*
X139880000Y-114890000D02*
X139880000Y-104620000D01*
X139880000Y-116160000D02*
X139880000Y-117540000D01*
X139880000Y-117540000D02*
X138500000Y-117540000D01*
%TO.C,SW4*%
X91935000Y-129595000D02*
X105905000Y-129595000D01*
X91935000Y-143565000D02*
X91935000Y-129595000D01*
X105905000Y-129595000D02*
X105905000Y-143565000D01*
X105905000Y-143565000D02*
X91935000Y-143565000D01*
%TO.C,R1*%
X118517133Y-145900000D02*
G75*
G02*
X118517133Y-144260000I-417133J820000D01*
G01*
%TO.C,J3*%
X137120000Y-72580000D02*
X138500000Y-72580000D01*
X137120000Y-73960000D02*
X137120000Y-72580000D01*
X137120000Y-75230000D02*
X137120000Y-85500000D01*
X137120000Y-75230000D02*
X139880000Y-75230000D01*
X137120000Y-85500000D02*
X139880000Y-85500000D01*
X139880000Y-75230000D02*
X139880000Y-85500000D01*
%TO.C,J7*%
X169120000Y-114890000D02*
X169120000Y-104620000D01*
X171880000Y-104620000D02*
X169120000Y-104620000D01*
X171880000Y-114890000D02*
X169120000Y-114890000D01*
X171880000Y-114890000D02*
X171880000Y-104620000D01*
X171880000Y-116160000D02*
X171880000Y-117540000D01*
X171880000Y-117540000D02*
X170500000Y-117540000D01*
%TO.C,SW2*%
X175095000Y-46595000D02*
X189065000Y-46595000D01*
X175095000Y-60565000D02*
X175095000Y-46595000D01*
X189065000Y-46595000D02*
X189065000Y-60565000D01*
X189065000Y-60565000D02*
X175095000Y-60565000D01*
%TO.C,SW1*%
X91935000Y-46595000D02*
X105905000Y-46595000D01*
X91935000Y-60565000D02*
X91935000Y-46595000D01*
X105905000Y-46595000D02*
X105905000Y-60565000D01*
X105905000Y-60565000D02*
X91935000Y-60565000D01*
%TD*%
M02*
