M48
; DRILL file {KiCad 9.0.4} date 2025-08-31T14:54:29-0400
; FORMAT={-:-/ absolute / metric / decimal}
; #@! TF.CreationDate,2025-08-31T14:54:29-04:00
; #@! TF.GenerationSoftware,Kicad,Pcbnew,9.0.4
; #@! TF.FileFunction,Plated,1,2,PTH
FMAT,2
METRIC
; #@! TA.AperFunction,Plated,PTH,ViaDrill
T1C0.300
; #@! TA.AperFunction,Plated,PTH,ComponentDrill
T2C0.700
; #@! TA.AperFunction,Plated,PTH,ComponentDrill
T3C0.889
; #@! TA.AperFunction,Plated,PTH,ComponentDrill
T4C1.000
; #@! TA.AperFunction,Plated,PTH,ComponentDrill
T5C1.500
%
G90
G05
T1
X92.42Y-77.388
X95.805Y-53.799
X96.135Y-121.617
X99.375Y-122.822
X101.785Y-122.274
X105.117Y-80.171
X113.963Y-89.182
X169.081Y-108.494
T2
X118.1Y-145.08
X120.0Y-145.08
T3
X93.5Y-87.84
X93.5Y-103.08
X96.04Y-87.84
X96.04Y-103.08
X98.58Y-87.84
X98.58Y-103.08
X101.12Y-87.84
X101.12Y-103.08
X103.66Y-87.84
X103.66Y-103.08
X106.2Y-87.84
X106.2Y-103.08
X108.74Y-87.84
X108.74Y-103.08
T4
X92.42Y-124.08
X94.96Y-124.08
X97.5Y-124.08
X100.04Y-124.08
X102.58Y-124.08
X105.12Y-124.08
X110.5Y-73.96
X110.5Y-76.5
X110.5Y-79.04
X110.5Y-81.58
X110.5Y-84.12
X138.5Y-73.96
X138.5Y-76.5
X138.5Y-79.04
X138.5Y-81.58
X138.5Y-84.12
X138.5Y-106.0
X138.5Y-108.54
X138.5Y-111.08
X138.5Y-113.62
X138.5Y-116.16
X142.5Y-73.96
X142.5Y-76.5
X142.5Y-79.04
X142.5Y-81.58
X142.5Y-84.12
X142.5Y-106.0
X142.5Y-108.54
X142.5Y-111.08
X142.5Y-113.62
X142.5Y-116.16
X170.5Y-73.96
X170.5Y-76.5
X170.5Y-79.04
X170.5Y-81.58
X170.5Y-84.12
X170.5Y-106.0
X170.5Y-108.54
X170.5Y-111.08
X170.5Y-113.62
X170.5Y-116.16
T5
X95.11Y-51.04
X95.11Y-134.04
X101.46Y-48.5
X101.46Y-131.5
X178.11Y-134.04
X178.27Y-51.04
X184.46Y-131.5
X184.62Y-48.5
M30
