%TF.GenerationSoftware,KiCad,Pcbnew,9.0.4*%
%TF.CreationDate,2025-08-31T14:54:27-04:00*%
%TF.ProjectId,wordclock,776f7264-636c-46f6-936b-2e6b69636164,rev?*%
%TF.SameCoordinates,Original*%
%TF.FileFunction,Copper,L2,Bot*%
%TF.FilePolarity,Positive*%
%FSLAX46Y46*%
G04 Gerber Fmt 4.6, Leading zero omitted, Abs format (unit mm)*
G04 Created by KiCad (PCBNEW 9.0.4) date 2025-08-31 14:54:27*
%MOMM*%
%LPD*%
G01*
G04 APERTURE LIST*
G04 Aperture macros list*
%AMRoundRect*
0 Rectangle with rounded corners*
0 $1 Rounding radius*
0 $2 $3 $4 $5 $6 $7 $8 $9 X,Y pos of 4 corners*
0 Add a 4 corners polygon primitive as box body*
4,1,4,$2,$3,$4,$5,$6,$7,$8,$9,$2,$3,0*
0 Add four circle primitives for the rounded corners*
1,1,$1+$1,$2,$3*
1,1,$1+$1,$4,$5*
1,1,$1+$1,$6,$7*
1,1,$1+$1,$8,$9*
0 Add four rect primitives between the rounded corners*
20,1,$1+$1,$2,$3,$4,$5,0*
20,1,$1+$1,$4,$5,$6,$7,0*
20,1,$1+$1,$6,$7,$8,$9,0*
20,1,$1+$1,$8,$9,$2,$3,0*%
G04 Aperture macros list end*
%TA.AperFunction,ComponentPad*%
%ADD10R,1.700000X1.700000*%
%TD*%
%TA.AperFunction,ComponentPad*%
%ADD11C,1.700000*%
%TD*%
%TA.AperFunction,ComponentPad*%
%ADD12C,2.200000*%
%TD*%
%TA.AperFunction,ComponentPad*%
%ADD13C,1.400000*%
%TD*%
%TA.AperFunction,SMDPad,CuDef*%
%ADD14RoundRect,0.152400X0.609600X-1.063600X0.609600X1.063600X-0.609600X1.063600X-0.609600X-1.063600X0*%
%TD*%
%TA.AperFunction,ComponentPad*%
%ADD15C,1.524000*%
%TD*%
%TA.AperFunction,SMDPad,CuDef*%
%ADD16RoundRect,0.152400X-0.609600X1.063600X-0.609600X-1.063600X0.609600X-1.063600X0.609600X1.063600X0*%
%TD*%
%TA.AperFunction,ViaPad*%
%ADD17C,0.600000*%
%TD*%
%TA.AperFunction,Conductor*%
%ADD18C,0.200000*%
%TD*%
G04 APERTURE END LIST*
D10*
%TO.P,J4,1,Pin_1*%
%TO.N,+3V3*%
X170500000Y-73960000D03*
D11*
%TO.P,J4,2,Pin_2*%
%TO.N,GND*%
X170500000Y-76500000D03*
%TO.P,J4,3,Pin_3*%
%TO.N,DIN3*%
X170500000Y-79040000D03*
%TO.P,J4,4,Pin_4*%
%TO.N,CS3*%
X170500000Y-81580000D03*
%TO.P,J4,5,Pin_5*%
%TO.N,CLK*%
X170500000Y-84120000D03*
%TD*%
D10*
%TO.P,J5,1,Pin_1*%
%TO.N,+3V3*%
X142500000Y-116160000D03*
D11*
%TO.P,J5,2,Pin_2*%
%TO.N,GND*%
X142500000Y-113620000D03*
%TO.P,J5,3,Pin_3*%
%TO.N,DIN4*%
X142500000Y-111080000D03*
%TO.P,J5,4,Pin_4*%
%TO.N,CS4*%
X142500000Y-108540000D03*
%TO.P,J5,5,Pin_5*%
%TO.N,CLK*%
X142500000Y-106000000D03*
%TD*%
D10*
%TO.P,J6,1,Pin_1*%
%TO.N,+3V3*%
X142500000Y-73960000D03*
D11*
%TO.P,J6,2,Pin_2*%
%TO.N,GND*%
X142500000Y-76500000D03*
%TO.P,J6,3,Pin_3*%
%TO.N,DIN2*%
X142500000Y-79040000D03*
%TO.P,J6,4,Pin_4*%
%TO.N,CS2*%
X142500000Y-81580000D03*
%TO.P,J6,5,Pin_5*%
%TO.N,CLK*%
X142500000Y-84120000D03*
%TD*%
D12*
%TO.P,SW3,1,1*%
%TO.N,B2*%
X184460000Y-131500000D03*
%TO.P,SW3,2,2*%
%TO.N,GND*%
X178110000Y-134040000D03*
%TD*%
D10*
%TO.P,J1,1,Pin_1*%
%TO.N,+3V3*%
X110500000Y-73960000D03*
D11*
%TO.P,J1,2,Pin_2*%
%TO.N,GND*%
X110500000Y-76500000D03*
%TO.P,J1,3,Pin_3*%
%TO.N,DIN*%
X110500000Y-79040000D03*
%TO.P,J1,4,Pin_4*%
%TO.N,CS*%
X110500000Y-81580000D03*
%TO.P,J1,5,Pin_5*%
%TO.N,CLK*%
X110500000Y-84120000D03*
%TD*%
D10*
%TO.P,J8,1,Pin_1*%
%TO.N,+3V3*%
X138500000Y-116160000D03*
D11*
%TO.P,J8,2,Pin_2*%
%TO.N,GND*%
X138500000Y-113620000D03*
%TO.P,J8,3,Pin_3*%
%TO.N,DIN4*%
X138500000Y-111080000D03*
%TO.P,J8,4,Pin_4*%
%TO.N,CS4*%
X138500000Y-108540000D03*
%TO.P,J8,5,Pin_5*%
%TO.N,CLK*%
X138500000Y-106000000D03*
%TD*%
D12*
%TO.P,SW4,1,1*%
%TO.N,B4*%
X101460000Y-131500000D03*
%TO.P,SW4,2,2*%
%TO.N,GND*%
X95110000Y-134040000D03*
%TD*%
D13*
%TO.P,R1,1*%
%TO.N,+3V3*%
X118100000Y-145080000D03*
%TO.P,R1,2*%
%TO.N,PHOTO*%
X120000000Y-145080000D03*
%TD*%
D10*
%TO.P,J3,1,Pin_1*%
%TO.N,+3V3*%
X138500000Y-73960000D03*
D11*
%TO.P,J3,2,Pin_2*%
%TO.N,GND*%
X138500000Y-76500000D03*
%TO.P,J3,3,Pin_3*%
%TO.N,DIN2*%
X138500000Y-79040000D03*
%TO.P,J3,4,Pin_4*%
%TO.N,CS2*%
X138500000Y-81580000D03*
%TO.P,J3,5,Pin_5*%
%TO.N,CLK*%
X138500000Y-84120000D03*
%TD*%
D10*
%TO.P,J7,1,Pin_1*%
%TO.N,+3V3*%
X170500000Y-116160000D03*
D11*
%TO.P,J7,2,Pin_2*%
%TO.N,GND*%
X170500000Y-113620000D03*
%TO.P,J7,3,Pin_3*%
%TO.N,DIN3*%
X170500000Y-111080000D03*
%TO.P,J7,4,Pin_4*%
%TO.N,CS3*%
X170500000Y-108540000D03*
%TO.P,J7,5,Pin_5*%
%TO.N,CLK*%
X170500000Y-106000000D03*
%TD*%
D12*
%TO.P,SW2,1,1*%
%TO.N,B3*%
X184620000Y-48500000D03*
%TO.P,SW2,2,2*%
%TO.N,GND*%
X178270000Y-51040000D03*
%TD*%
%TO.P,SW1,1,1*%
%TO.N,B1*%
X101460000Y-48500000D03*
%TO.P,SW1,2,2*%
%TO.N,GND*%
X95110000Y-51040000D03*
%TD*%
D10*
%TO.P,J2,1,Pin_1*%
%TO.N,unconnected-(J2-Pin_1-Pad1)*%
X92420000Y-124080000D03*
D11*
%TO.P,J2,2,Pin_2*%
%TO.N,unconnected-(J2-Pin_2-Pad2)*%
X94960000Y-124080000D03*
%TO.P,J2,3,Pin_3*%
%TO.N,SCL*%
X97500000Y-124080000D03*
%TO.P,J2,4,Pin_4*%
%TO.N,SDA*%
X100040000Y-124080000D03*
%TO.P,J2,5,Pin_5*%
%TO.N,+3V3*%
X102580000Y-124080000D03*
%TO.P,J2,6,Pin_6*%
%TO.N,GND*%
X105120000Y-124080000D03*
%TD*%
D14*
%TO.P,U1,1,GPIO26/ADC0/A0*%
%TO.N,B3*%
X93500000Y-87005000D03*
D15*
X93500000Y-87840000D03*
D14*
%TO.P,U1,2,GPIO27/ADC1/A1*%
%TO.N,B4*%
X96040000Y-87005000D03*
D15*
X96040000Y-87840000D03*
D14*
%TO.P,U1,3,GPIO28/ADC2/A2*%
%TO.N,CS*%
X98580000Y-87005000D03*
D15*
X98580000Y-87840000D03*
D14*
%TO.P,U1,4,GPIO29/ADC3/A3*%
%TO.N,PHOTO*%
X101120000Y-87005000D03*
D15*
X101120000Y-87840000D03*
D14*
%TO.P,U1,5,GPIO6/SDA*%
%TO.N,SDA*%
X103660000Y-87005000D03*
D15*
X103660000Y-87840000D03*
D14*
%TO.P,U1,6,GPIO7/SCL*%
%TO.N,SCL*%
X106200000Y-87005000D03*
D15*
X106200000Y-87840000D03*
D14*
%TO.P,U1,7,GPIO0/TX*%
%TO.N,B1*%
X108740000Y-87005000D03*
D15*
X108740000Y-87840000D03*
%TO.P,U1,8,GPIO1/RX*%
%TO.N,B2*%
X108740000Y-103080000D03*
D16*
X108740000Y-103915000D03*
D15*
%TO.P,U1,9,GPIO2/SCK*%
%TO.N,CLK*%
X106200000Y-103080000D03*
D16*
X106200000Y-103915000D03*
D15*
%TO.P,U1,10,GPIO4/MISO*%
%TO.N,unconnected-(U1-GPIO4{slash}MISO-Pad10)*%
X103660000Y-103080000D03*
D16*
%TO.N,unconnected-(U1-GPIO4{slash}MISO-Pad10)_1*%
X103660000Y-103915000D03*
D15*
%TO.P,U1,11,GPIO3/MOSI*%
%TO.N,DIN*%
X101120000Y-103080000D03*
D16*
X101120000Y-103915000D03*
D15*
%TO.P,U1,12,3V3*%
%TO.N,+3V3*%
X98580000Y-103080000D03*
D16*
X98580000Y-103915000D03*
D15*
%TO.P,U1,13,GND*%
%TO.N,GND*%
X96040000Y-103080000D03*
D16*
X96040000Y-103915000D03*
D15*
%TO.P,U1,14,VBUS*%
%TO.N,unconnected-(U1-VBUS-Pad14)*%
X93500000Y-103080000D03*
D16*
%TO.N,unconnected-(U1-VBUS-Pad14)_1*%
X93500000Y-103915000D03*
%TD*%
D17*
%TO.N,+3V3*%
X99374700Y-122822400D03*
%TO.N,DIN*%
X105117300Y-80171100D03*
%TO.N,GND*%
X96135000Y-121616900D03*
X92420200Y-77387900D03*
%TO.N,SCL*%
X101784700Y-122274300D03*
%TO.N,PHOTO*%
X113963100Y-89182300D03*
%TO.N,B3*%
X95805000Y-53799100D03*
%TO.N,B2*%
X169081100Y-108494100D03*
%TD*%
D18*
%TO.N,+3V3*%
X99374700Y-122822400D02*
X98580000Y-122027700D01*
X98580000Y-122027700D02*
X98580000Y-103915000D01*
X102580000Y-129560000D02*
X102580000Y-124080000D01*
X98580000Y-103915000D02*
X98580000Y-103080000D01*
X118100000Y-145080000D02*
X102580000Y-129560000D01*
%TO.N,CS*%
X98580000Y-87005000D02*
X98580000Y-87840000D01*
%TO.N,CLK*%
X106200000Y-103080000D02*
X110500000Y-98780000D01*
X106200000Y-103915000D02*
X106200000Y-103080000D01*
X110500000Y-98780000D02*
X110500000Y-84120000D01*
%TO.N,DIN*%
X101120000Y-92270700D02*
X101120000Y-103080000D01*
X101120000Y-103915000D02*
X101120000Y-103080000D01*
X105117300Y-88273400D02*
X101120000Y-92270700D01*
X105117300Y-80171100D02*
X105117300Y-88273400D01*
%TO.N,GND*%
X178270000Y-51040000D02*
X178441300Y-51211300D01*
X94353400Y-51040000D02*
X92420200Y-52973200D01*
X92420200Y-99460200D02*
X96040000Y-103080000D01*
X92420200Y-52973200D02*
X92420200Y-77387900D01*
X178441300Y-51211300D02*
X178441300Y-68558700D01*
X178110000Y-121230000D02*
X170500000Y-113620000D01*
X95110000Y-51040000D02*
X94353400Y-51040000D01*
X178441300Y-68558700D02*
X170500000Y-76500000D01*
X96135000Y-133015000D02*
X96135000Y-121616900D01*
X96135000Y-104010000D02*
X96040000Y-103915000D01*
X92420200Y-77387900D02*
X92420200Y-99460200D01*
X178110000Y-134040000D02*
X178110000Y-121230000D01*
X95110000Y-134040000D02*
X96135000Y-133015000D01*
X96135000Y-121616900D02*
X96135000Y-104010000D01*
X96040000Y-103915000D02*
X96040000Y-103080000D01*
%TO.N,SDA*%
X103660000Y-87005000D02*
X103660000Y-87422500D01*
X103660000Y-87672500D02*
X103660000Y-87840000D01*
X103660000Y-87631200D02*
X103660000Y-87672500D01*
X103660000Y-87840000D02*
X100040000Y-91460000D01*
X103660000Y-87422500D02*
X103660000Y-87631200D01*
X100040000Y-91460000D02*
X100040000Y-124080000D01*
%TO.N,SCL*%
X101784700Y-122274300D02*
X101784700Y-122220700D01*
X106200000Y-87005000D02*
X106200000Y-87422500D01*
X105128000Y-88912000D02*
X106200000Y-87840000D01*
X106200000Y-87463800D02*
X106200000Y-87840000D01*
X106200000Y-87422500D02*
X106200000Y-87463800D01*
X101784700Y-122220700D02*
X101784700Y-122274300D01*
X101784700Y-122274300D02*
X105128000Y-118931000D01*
X105128000Y-118931000D02*
X105128000Y-88912000D01*
%TO.N,PHOTO*%
X101120000Y-87005000D02*
X101120000Y-87840000D01*
X113963100Y-139043100D02*
X120000000Y-145080000D01*
X113963100Y-89182300D02*
X113963100Y-139043100D01*
%TO.N,B1*%
X108740000Y-87005000D02*
X108740000Y-55780000D01*
X108740000Y-55780000D02*
X101460000Y-48500000D01*
X108740000Y-87840000D02*
X108740000Y-87005000D01*
%TO.N,B3*%
X95805000Y-84700000D02*
X93500000Y-87005000D01*
X95805000Y-53799100D02*
X95805000Y-84700000D01*
X95805000Y-54073800D02*
X95805000Y-53799100D01*
X93500000Y-87840000D02*
X93500000Y-87005000D01*
X95805000Y-53799100D02*
X95805000Y-54073800D01*
%TO.N,B2*%
X170223500Y-109928300D02*
X169081100Y-108785900D01*
X108740000Y-103080000D02*
X108740000Y-103915000D01*
X171044700Y-109928300D02*
X170223500Y-109928300D01*
X169081100Y-108785900D02*
X169081100Y-108494100D01*
X184460000Y-123343600D02*
X171044700Y-109928300D01*
X184460000Y-131500000D02*
X184460000Y-123343600D01*
%TO.N,B4*%
X97300000Y-89100000D02*
X96040000Y-87840000D01*
X97300000Y-122050000D02*
X97300000Y-89100000D01*
X98770100Y-128810100D02*
X98770100Y-123520100D01*
X101460000Y-131500000D02*
X98770100Y-128810100D01*
X96040000Y-87005000D02*
X96040000Y-87840000D01*
X98770100Y-123520100D02*
X97300000Y-122050000D01*
%TD*%
M02*
